<?xml version="1.0" encoding="UTF-8"?>
<svg width="65px" height="65px" viewBox="0 0 65 65" version="1.1" xmlns="http://www.w3.org/2000/svg" xmlns:xlink="http://www.w3.org/1999/xlink">
    <title>Application Icons/Harbor</title>
    <defs>
        <polygon id="path-1" points="9.02144904 3.76640519 0.476712884 0 0 5.37826729 9.39734275 8.36301271"></polygon>
        <linearGradient x1="0.542649007%" y1="47.994494%" x2="100.498146%" y2="47.994494%" id="linearGradient-3">
            <stop stop-color="#60B932" offset="0%"></stop>
            <stop stop-color="#60B932" offset="28%"></stop>
            <stop stop-color="#367C34" offset="100%"></stop>
        </linearGradient>
        <path d="M1.803543,5.55999074 L6.60178887,5.55999074 L6.60178887,9.65374707 L5.46290561,9.65374707 L5.46290561,7.91119345 C5.46290561,7.21483858 4.89839845,6.65033143 4.20204359,6.65033143 C3.50568873,6.65033143 2.94118158,7.21483858 2.94118158,7.91119345 L2.94118158,9.65374707 L1.80229832,9.65374707 L1.803543,5.55999074 Z M0.845138507,14.5216951 L7.96471474,17.6595363 L7.47431036,11.6551944 L8.40657655,11.6551944 L8.40657655,9.65374707 L7.7157785,9.65374707 L7.7157785,5.55999074 L8.40657655,5.55999074 L8.40657655,4.38376704 L4.56549049,0.626074623 L4.56549049,0.362202217 C4.56549049,0.162163456 4.40332703,0 4.20328827,0 C4.00324951,0 3.84108606,0.162163456 3.84108606,0.362202217 L3.84108606,0.626074623 L0,4.38376704 L0,5.55999074 L0.692042724,5.55999074 L0.692042724,9.65374707 L0,9.65374707 L0,11.6601731 L1.09780878,11.6601731 L0.845138507,14.5216951 Z" id="path-4"></path>
        <linearGradient x1="-2.02591057%" y1="53.1882577%" x2="98.28931%" y2="53.1882577%" id="linearGradient-6">
            <stop stop-color="#60B932" offset="0%"></stop>
            <stop stop-color="#60B932" offset="28%"></stop>
            <stop stop-color="#367C34" offset="100%"></stop>
        </linearGradient>
        <polygon id="path-7" points="0 1.35296842 7.95102324 4.85799056 7.83153385 3.39797956 0.119489391 0"></polygon>
        <linearGradient x1="0.515625%" y1="48.7189342%" x2="100.296875%" y2="48.7189342%" id="linearGradient-9">
            <stop stop-color="#60B932" offset="0%"></stop>
            <stop stop-color="#60B932" offset="28%"></stop>
            <stop stop-color="#367C34" offset="100%"></stop>
        </linearGradient>
        <polygon id="path-10" points="0 1.35296842 8.36799143 5.04095869 8.24850204 3.58219238 0.119489391 0 0 1.35296842"></polygon>
        <linearGradient x1="1.31778339%" y1="43.037037%" x2="101.166246%" y2="43.037037%" id="linearGradient-12">
            <stop stop-color="#60B932" offset="0%"></stop>
            <stop stop-color="#60B932" offset="28%"></stop>
            <stop stop-color="#367C34" offset="100%"></stop>
        </linearGradient>
        <polygon id="path-13" points="0.119489391 0 0 1.35296842 7.53529974 4.67377775 7.41705503 3.21501143 0.119489391 3.53759662e-15"></polygon>
        <linearGradient x1="-0.855067679%" y1="54.9241012%" x2="99.0326841%" y2="54.9241012%" id="linearGradient-15">
            <stop stop-color="#60B932" offset="0%"></stop>
            <stop stop-color="#60B932" offset="28%"></stop>
            <stop stop-color="#367C34" offset="100%"></stop>
        </linearGradient>
        <path d="M17.3595681,3.92696906 C16.2662506,2.61924891 15.0234682,1.44414077 13.6566417,0.425680956 C13.4612267,0.280053261 13.2608331,0.13940429 13.0604394,0 L10.2487047,2.920022 L0,13.5782268 L14.115929,6.27443772 L17.7342172,4.40741598 C17.6085044,4.24436275 17.4877703,4.08130952 17.3595681,3.92696906 Z" id="path-16"></path>
        <linearGradient x1="2.5392502%" y1="78.6494505%" x2="94.9877848%" y2="26.2342856%" id="linearGradient-18">
            <stop stop-color="#4596D8" offset="0%"></stop>
            <stop stop-color="#4596D8" offset="20%"></stop>
            <stop stop-color="#FFFFFF" offset="100%"></stop>
        </linearGradient>
        <path d="M22.3918141,2.34248994 C22.3918141,2.09355371 22.3743885,1.84461748 22.3644311,1.60439401 L18.3553131,1.31687267 L0,0 L18.0068023,6.2495441 L21.7918777,7.56268272 C21.8030799,7.5178742 21.8155267,7.47431036 21.8267288,7.42825716 C22.2036797,5.81782944 22.3945352,4.16945599 22.3955481,2.51550062 L22.3955481,2.3449793 L22.3918141,2.34248994 Z" id="path-19"></path>
        <linearGradient x1="-0.675656209%" y1="47.2455446%" x2="104.389475%" y2="54.4896504%" id="linearGradient-21">
            <stop stop-color="#4194D7" offset="0%"></stop>
            <stop stop-color="#4194D7" offset="20%"></stop>
            <stop stop-color="#FFFFFF" offset="100%"></stop>
        </linearGradient>
        <path d="M21.5230266,4.69244797 C21.1334154,3.06658012 20.5552878,1.49176719 19.8003879,0 L15.9493444,1.23721307 L0,6.35907604 L17.6744725,5.75789504 L21.7196862,5.61973543 C21.6574522,5.31105451 21.5964628,4.99988422 21.5230266,4.69244797 L21.5230266,4.69244797 Z" id="path-22"></path>
        <linearGradient x1="-3.41630605%" y1="57.0017341%" x2="96.3745328%" y2="51.7290257%" id="linearGradient-24">
            <stop stop-color="#4194D7" offset="0%"></stop>
            <stop stop-color="#4496D8" offset="33%"></stop>
            <stop stop-color="#FFFFFF" offset="100%"></stop>
        </linearGradient>
    </defs>
    <g id="Application-Icons/Harbor" stroke="none" stroke-width="1" fill="none" fill-rule="evenodd">
        <path d="M49,0.5 C53.2802068,0.5 57.1552068,2.23489659 59.9601551,5.03984489 C62.7651034,7.84479319 64.5,11.7197932 64.5,16 L64.5,49 C64.5,53.2802068 62.7651034,57.1552068 59.9601551,59.9601551 C57.1552068,62.7651034 53.2802068,64.5 49,64.5 L16,64.5 C11.7197932,64.5 7.84479319,62.7651034 5.03984489,59.9601551 C2.23489659,57.1552068 0.5,53.2802068 0.5,49 L0.5,16 C0.5,11.7197932 2.23489659,7.84479319 5.03984489,5.03984489 C7.84479319,2.23489659 11.7197932,0.5 16,0.5 Z" id="Border-Copy" stroke="#D8D8D8" fill="#FFFFFF" fill-rule="nonzero"></path>
        <g id="harbor-icon-color" transform="translate(11, 11)">
            <path d="M2.83040479,21.6437804 C2.82939807,14.1490431 7.34334404,7.39172609 14.2672895,4.52291659 C21.1912349,1.65410709 29.1615409,3.2388038 34.4614765,8.53802738 C39.7614121,13.837251 41.3471796,21.807344 38.4793004,28.7316748 C35.6114212,35.6560056 28.8547107,40.1708594 21.3599734,40.1708594 C11.1273474,40.1708594 2.83177966,31.8764063 2.83040479,21.6437804" id="path14" fill="#FFFFFF" fill-rule="nonzero"></path>
            <g id="g30-Clipped" transform="translate(11.6714, 33.2517)">
                <mask id="mask-2" fill="white">
                    <use xlink:href="#path-1"></use>
                </mask>
                <g id="Path"></g>
                <g id="g30" mask="url(#mask-2)">
                    <g transform="translate(0.0012, 0.0012)" id="g32">
                        <polyline id="path46" fill="url(#linearGradient-3)" fill-rule="nonzero" points="9.02020436 3.76516051 0.475468203 0 0 5.37702261 9.39734275 8.36425739 9.0239384 3.76764987"></polyline>
                    </g>
                </g>
            </g>
            <g id="g48-Clipped" transform="translate(12.0174, 10.6545)">
                <mask id="mask-5" fill="white">
                    <use xlink:href="#path-4"></use>
                </mask>
                <g id="Shape"></g>
                <g id="g48" mask="url(#mask-5)" fill="url(#linearGradient-6)" fill-rule="nonzero">
                    <g id="g50">
                        <path d="M1.803543,5.55999074 L6.60178887,5.55999074 L6.60178887,9.65374707 L5.46290561,9.65374707 L5.46290561,7.91119345 C5.46290561,7.21483858 4.89839845,6.65033143 4.20204359,6.65033143 C3.50568873,6.65033143 2.94118158,7.21483858 2.94118158,7.91119345 L2.94118158,9.65374707 L1.80229832,9.65374707 L1.803543,5.55999074 Z M0.845138507,14.5216951 L7.96471474,17.6595363 L7.47431036,11.6551944 L8.40657655,11.6551944 L8.40657655,9.65374707 L7.7157785,9.65374707 L7.7157785,5.55999074 L8.40657655,5.55999074 L8.40657655,4.38376704 L4.56549049,0.626074623 L4.56549049,0.362202217 C4.56549049,0.162163456 4.40332703,0 4.20328827,0 C4.00324951,0 3.84108606,0.162163456 3.84108606,0.362202217 L3.84108606,0.626074623 L0,4.38376704 L0,5.55999074 L0.692042724,5.55999074 L0.692042724,9.65374707 L0,9.65374707 L0,11.6601731 L1.09780878,11.6601731 L0.84887255,14.5229398" id="path64"></path>
                    </g>
                </g>
            </g>
            <g id="g66-Clipped" transform="translate(12.4456, 28.5406)">
                <mask id="mask-8" fill="white">
                    <use xlink:href="#path-7"></use>
                </mask>
                <g id="Path"></g>
                <g id="g66" mask="url(#mask-8)">
                    <g transform="translate(-0.0174, 0)" id="g68">
                        <polyline id="path82" fill="url(#linearGradient-9)" fill-rule="nonzero" points="0.0161808551 1.35296842 7.96595942 4.85799056 7.8414913 3.39922425 0.124468116 0 0 1.35296842"></polyline>
                    </g>
                </g>
            </g>
            <g id="g84-Clipped" transform="translate(12.2365, 30.8967)">
                <mask id="mask-11" fill="white">
                    <use xlink:href="#path-10"></use>
                </mask>
                <g id="Path"></g>
                <g id="g84" mask="url(#mask-11)">
                    <g transform="translate(-0.01, 0)" id="g86">
                        <polyline id="path100" fill="url(#linearGradient-12)" fill-rule="nonzero" points="0.00995744927 1.35296842 8.37794888 5.04095869 8.25348077 3.58219238 0.124468116 0 0 1.35296842"></polyline>
                    </g>
                </g>
            </g>
            <g id="g102-Clipped" transform="translate(12.6534, 26.1844)">
                <mask id="mask-14" fill="white">
                    <use xlink:href="#path-13"></use>
                </mask>
                <g id="Path"></g>
                <g id="g102" mask="url(#mask-14)">
                    <g transform="translate(-0.005, -0.0037)" id="g104">
                        <polyline id="path118" fill="url(#linearGradient-15)" fill-rule="nonzero" points="0.124468116 0.00373404348 0 1.35794714 7.54027846 4.67377775 7.41581035 3.21501143 0.119489391 0"></polyline>
                    </g>
                </g>
            </g>
            <path d="M36.8326049,13.1612783 L40.6824037,11.9240652 C40.6687122,11.8966822 40.6562654,11.8680546 40.6425739,11.8419162 C39.992656,10.5728571 39.2192931,9.37091362 38.3336903,8.25350047 L34.7154022,10.1205222 C35.5091067,11.0372037 36.2068627,12.0327468 36.7977538,13.0915761 C36.8102006,13.1127357 36.820158,13.13514 36.8313602,13.1575442" id="path120" fill="#696566" fill-rule="nonzero"></path>
            <path d="M38.9585203,20.4451524 L42.9676383,20.7326738 C42.9225793,19.66315 42.7977645,18.5984803 42.5942339,17.5475347 L38.5490202,17.6856943 C38.7568492,18.5933262 38.8921167,19.5160584 38.9535416,20.4451524" id="path122" fill="#696566" fill-rule="nonzero"></path>
            <path d="M21.6387819,39.2946039 C11.9053753,39.2946039 3.98546907,31.3759424 3.98546907,21.6425357 C3.98546907,11.909129 11.9078646,3.98922281 21.6387819,3.98922281 C25.0056761,3.98546277 28.3025201,4.95075105 31.1356992,6.76984052 L33.9424552,3.8448398 C30.3305547,1.33591474 26.0365649,-0.00592993715 21.6387819,0 C9.70851304,0 0,9.70853274 0,21.6437804 C0,33.579028 9.70851304,43.2825623 21.6387819,43.2825623 C31.8327206,43.2825623 40.3948823,36.1878797 42.6738935,26.6884731 L38.8925522,25.3778239 C37.1748922,33.3238684 30.0939011,39.2970933 21.6412713,39.2970933" id="path124" fill="#696566" fill-rule="nonzero"></path>
            <g id="g126-Clipped" transform="translate(20.6007, 3.8498)">
                <mask id="mask-17" fill="white">
                    <use xlink:href="#path-16"></use>
                </mask>
                <g id="Path"></g>
                <g id="g126" mask="url(#mask-17)" fill="url(#linearGradient-18)" fill-rule="nonzero">
                    <g id="g128">
                        <path d="M17.3595681,3.92696906 C16.2662506,2.61924891 15.0234682,1.44414077 13.6566417,0.425680956 C13.4612267,0.280053261 13.2608331,0.13940429 13.0604394,0 L10.2487047,2.920022 L0,13.5782268 L14.115929,6.27443772 L17.7342172,4.40741598 C17.609749,4.24934148 17.4852809,4.08628824 17.3608128,3.93194778" id="path142"></path>
                    </g>
                </g>
            </g>
            <g id="g144-Clipped" transform="translate(20.6045, 19.1283)">
                <mask id="mask-20" fill="white">
                    <use xlink:href="#path-19"></use>
                </mask>
                <g id="Path"></g>
                <g id="g144" mask="url(#mask-20)" fill="url(#linearGradient-21)" fill-rule="nonzero">
                    <g id="g146">
                        <path d="M22.3918141,2.34248994 C22.3918141,2.09355371 22.3743885,1.84461748 22.3644311,1.60439401 L18.3553131,1.31687267 L0,0 L18.0068023,6.2495441 L21.7918777,7.56268272 C21.8030799,7.5178742 21.8155267,7.47431036 21.8267288,7.42825716 C22.2036797,5.81782944 22.3945352,4.16945599 22.3955481,2.51550062 L22.3955481,2.3449793" id="path160"></path>
                    </g>
                </g>
            </g>
            <g id="g162-Clipped" transform="translate(20.882, 11.9241)">
                <mask id="mask-23" fill="white">
                    <use xlink:href="#path-22"></use>
                </mask>
                <g id="Path"></g>
                <g id="g162" mask="url(#mask-23)" fill="url(#linearGradient-24)" fill-rule="nonzero">
                    <g id="g164">
                        <path d="M21.5230266,4.69244797 C21.1334154,3.06658012 20.5552878,1.49176719 19.8003879,0 L15.9493444,1.23721307 L0,6.35907604 L17.6744725,5.75789504 L21.7196862,5.61973543 C21.6599415,5.30732046 21.5952181,4.99739485 21.525516,4.68871393" id="path178"></path>
                    </g>
                </g>
            </g>
        </g>
    </g>
</svg>